<mxfile host="65bd71144e">
    <diagram id="YZ7G7oTAAzTlDPzaDo3e" name="Page-1">
        <mxGraphModel dx="490" dy="165" grid="1" gridSize="10" guides="1" tooltips="1" connect="1" arrows="1" fold="1" page="1" pageScale="1" pageWidth="850" pageHeight="1100" math="0" shadow="0">
            <root>
                <mxCell id="0"/>
                <mxCell id="1" parent="0"/>
                <mxCell id="2" value="DSL Binding Panel" style="swimlane;horizontal=1;resizeParent=1;" vertex="1" parent="1">
                    <mxGeometry x="20" y="20" width="600" height="200" as="geometry"/>
                </mxCell>
                <mxCell id="3" value="Selected Component\nButton: Print Bag Tag" style="shape=rectangle;fillColor=#dae8fc;strokeColor=#6c8ebf;" vertex="1" parent="2">
                    <mxGeometry x="20" y="20" width="250" height="160" as="geometry"/>
                </mxCell>
                <mxCell id="4" value="Binding Options\nDSL: BagTag.print\nEvent: onClick\nParams: { printer: bagtag01 }" style="shape=rectangle;fillColor=#fff2cc;strokeColor=#d6b656;" vertex="1" parent="2">
                    <mxGeometry x="290" y="20" width="280" height="160" as="geometry"/>
                </mxCell>
            </root>
        </mxGraphModel>
    </diagram>
</mxfile>